<svg id="Layer_1" data-name="Layer 1" xmlns="http://www.w3.org/2000/svg" viewBox="0 0 81.04 9.14"><defs><style>.cls-1{fill:#fff;}</style></defs><path class="cls-1" d="M.24,3.54A3.48,3.48,0,0,1,.7,1.78,3.43,3.43,0,0,1,2,.48,3.52,3.52,0,0,1,3.77,0,3.45,3.45,0,0,1,5.56.48a3.4,3.4,0,0,1,1.28,1.3A3.51,3.51,0,0,1,7.3,3.54a3.45,3.45,0,0,1-.48,1.79A3.33,3.33,0,0,1,5.53,6.62a3.48,3.48,0,0,1-1.76.46A3.52,3.52,0,0,1,2,6.6,3.62,3.62,0,0,1,.7,5.31,3.49,3.49,0,0,1,.24,3.54Zm.65,0A2.88,2.88,0,0,0,1.28,5a2.94,2.94,0,0,0,1.05,1A2.9,2.9,0,0,0,5.22,6,2.84,2.84,0,0,0,6.28,5a2.77,2.77,0,0,0,.38-1.44,2.84,2.84,0,0,0-.39-1.45,2.79,2.79,0,0,0-1-1A2.85,2.85,0,0,0,3.76.65,2.76,2.76,0,0,0,2.33,1a2.81,2.81,0,0,0-1,1.06A2.84,2.84,0,0,0,.89,3.54Zm2.93-2A1.51,1.51,0,0,1,5.39,2.68l-.67.16a1,1,0,0,0-.94-.68A.93.93,0,0,0,3,2.54a1.6,1.6,0,0,0-.29,1,1.62,1.62,0,0,0,.28,1,.92.92,0,0,0,.76.37.91.91,0,0,0,.62-.23,1.14,1.14,0,0,0,.37-.62l.67.22a1.66,1.66,0,0,1-.59.92,1.7,1.7,0,0,1-1.05.32A1.68,1.68,0,0,1,2.48,5,2.07,2.07,0,0,1,2,3.54a2.05,2.05,0,0,1,.5-1.44A1.74,1.74,0,0,1,3.82,1.56Z" transform="translate(-0.24)"/><path class="cls-1" d="M14.65.45v1H12V3.11h2.7v1H12V7H10.7V.45Z" transform="translate(-0.24)"/><path class="cls-1" d="M17.21,2.52a2.05,2.05,0,0,1,1.28.35,1.23,1.23,0,0,1,.44,1V6c0,.17.06.25.2.25a.79.79,0,0,0,.23-.07A1,1,0,0,0,19.61,6v.66A2.08,2.08,0,0,1,18.52,7a.86.86,0,0,1-.47-.1.56.56,0,0,1-.23-.37A2.28,2.28,0,0,1,16.51,7a1.13,1.13,0,0,1-.81-.32A1,1,0,0,1,15.36,6a1.14,1.14,0,0,1,.34-.88,2.75,2.75,0,0,1,1.17-.57l.92-.27V4c0-.43-.26-.64-.77-.64a1.85,1.85,0,0,0-.78.18,2.13,2.13,0,0,0-.71.54v-1A2.58,2.58,0,0,1,17.21,2.52Zm-.7,3.26a.49.49,0,0,0,.15.38.54.54,0,0,0,.38.15A1.13,1.13,0,0,0,17.79,6V4.82a4.9,4.9,0,0,0-.75.31,1.33,1.33,0,0,0-.4.29A.57.57,0,0,0,16.51,5.78Z" transform="translate(-0.24)"/><path class="cls-1" d="M22.75,2.52a1.54,1.54,0,0,1,.85.23,1.43,1.43,0,0,1,.51.63,2.88,2.88,0,0,1,.73-.66,1.69,1.69,0,0,1,.8-.2A1.45,1.45,0,0,1,26.75,3a1.67,1.67,0,0,1,.43,1.19V7H26V4.35a1.17,1.17,0,0,0-.19-.71.66.66,0,0,0-.56-.26,1.3,1.3,0,0,0-1,.68V7H23.14V4.34a1,1,0,0,0-.21-.7.65.65,0,0,0-.54-.26.91.91,0,0,0-.51.16,2.28,2.28,0,0,0-.5.52V7H20.24V2.6h1.14v.61A2.22,2.22,0,0,1,22,2.69,1.47,1.47,0,0,1,22.75,2.52Z" transform="translate(-0.24)"/><path class="cls-1" d="M28.89.59a.6.6,0,0,1,.45.19.62.62,0,0,1,.19.46.61.61,0,0,1-.19.45.59.59,0,0,1-.45.2.63.63,0,0,1-.46-.2.65.65,0,0,1-.19-.45.63.63,0,0,1,.2-.46A.61.61,0,0,1,28.89.59Zm.57,2V7H28.32V2.6Z" transform="translate(-0.24)"/><path class="cls-1" d="M31.81.45V7H30.67V.45Z" transform="translate(-0.24)"/><path class="cls-1" d="M33.67,2.6l1,2.34,1-2.34H37L34,9.14H32.74l1.38-3L32.43,2.6Z" transform="translate(-0.24)"/><path class="cls-1" d="M39.93.45l1.83,4.17L43.55.45h1.31L42,7h-.44l-3-6.58Z" transform="translate(-0.24)"/><path class="cls-1" d="M46.85,2.52a1.94,1.94,0,0,1,1.51.61,2.45,2.45,0,0,1,.56,1.7V5H45.85a1.37,1.37,0,0,0,.43.9,1.5,1.5,0,0,0,1,.31,2.35,2.35,0,0,0,.79-.14,3.83,3.83,0,0,0,.78-.43v.85A3.11,3.11,0,0,1,47,7a2.33,2.33,0,0,1-1.67-.62,2.18,2.18,0,0,1-.65-1.65,2.25,2.25,0,0,1,.6-1.62A2.09,2.09,0,0,1,46.85,2.52Zm1,1.79a1.22,1.22,0,0,0-.28-.74.86.86,0,0,0-.67-.27,1,1,0,0,0-.69.25,1.22,1.22,0,0,0-.33.76Z" transform="translate(-0.24)"/><path class="cls-1" d="M52.32,2.52A1.42,1.42,0,0,1,53.43,3a1.73,1.73,0,0,1,.42,1.21V7H52.71V4.3a1,1,0,0,0-.2-.67A.67.67,0,0,0,52,3.38a.85.85,0,0,0-.5.16,2.51,2.51,0,0,0-.51.52V7H49.81V2.6H51v.61a1.92,1.92,0,0,1,.65-.53A1.58,1.58,0,0,1,52.32,2.52Z" transform="translate(-0.24)"/><path class="cls-1" d="M56.14,1.45h.09V2.6h1.49v.87H56.23v2a.66.66,0,0,0,.18.48.65.65,0,0,0,.48.18,2,2,0,0,0,.92-.29v.91A2.77,2.77,0,0,1,56.65,7a1.54,1.54,0,0,1-1.14-.4,1.42,1.42,0,0,1-.41-1.08V3.47h-.68V3.28Z" transform="translate(-0.24)"/><path class="cls-1" d="M59.56,2.6V5.29a.88.88,0,0,0,.21.64.73.73,0,0,0,.56.22A1,1,0,0,0,60.88,6a1.32,1.32,0,0,0,.43-.5V2.6h1.14V7H61.31V6.36A1.83,1.83,0,0,1,60,7a1.44,1.44,0,0,1-1.12-.46,1.64,1.64,0,0,1-.43-1.19V2.6Z" transform="translate(-0.24)"/><path class="cls-1" d="M66.07,2.52a1,1,0,0,1,.45.1A3,3,0,0,1,67,3l-.41,1a1.56,1.56,0,0,0-.8-.37.87.87,0,0,0-.52.2,1.42,1.42,0,0,0-.41.52,1.45,1.45,0,0,0-.16.65V7H63.59V2.6h1.14V3.71h0a3.09,3.09,0,0,1,.63-.91A1,1,0,0,1,66.07,2.52Z" transform="translate(-0.24)"/><path class="cls-1" d="M69.31,2.52a1.92,1.92,0,0,1,1.51.61,2.45,2.45,0,0,1,.56,1.7V5H68.31a1.34,1.34,0,0,0,.44.9,1.46,1.46,0,0,0,1,.31,2.29,2.29,0,0,0,.78-.14,3.58,3.58,0,0,0,.78-.43v.85A3.08,3.08,0,0,1,69.47,7a2.35,2.35,0,0,1-1.68-.62,2.18,2.18,0,0,1-.65-1.65,2.25,2.25,0,0,1,.6-1.62A2.12,2.12,0,0,1,69.31,2.52Zm1,1.79A1.22,1.22,0,0,0,70,3.57a.84.84,0,0,0-.66-.27,1,1,0,0,0-.7.25,1.34,1.34,0,0,0-.33.76Z" transform="translate(-0.24)"/><path class="cls-1" d="M73.68,2.52a2.41,2.41,0,0,1,.67.08,3,3,0,0,1,.67.26v.91a2.92,2.92,0,0,0-.69-.33,2,2,0,0,0-.67-.13.69.69,0,0,0-.38.09.29.29,0,0,0-.14.27.27.27,0,0,0,.11.19,3.65,3.65,0,0,0,.64.36,3.76,3.76,0,0,1,1,.7,1.06,1.06,0,0,1,.3.76,1.19,1.19,0,0,1-.44,1A1.78,1.78,0,0,1,73.62,7a3.46,3.46,0,0,1-.87-.1,2.86,2.86,0,0,1-.67-.25V5.73a3.06,3.06,0,0,0,1.41.46.91.91,0,0,0,.47-.1.32.32,0,0,0,.19-.28.34.34,0,0,0-.07-.19,1.12,1.12,0,0,0-.19-.17c-.09-.06-.36-.2-.82-.42a2.31,2.31,0,0,1-.77-.55,1,1,0,0,1-.25-.7,1.11,1.11,0,0,1,.45-.92A1.88,1.88,0,0,1,73.68,2.52Z" transform="translate(-0.24)"/><path class="cls-1" d="M81.28.45V7H80.09V.45Z" transform="translate(-0.24)"/></svg>