<svg id="Layer_1" data-name="Layer 1" xmlns="http://www.w3.org/2000/svg" viewBox="0 0 31.93 31.93"><defs><style>.cls-1{fill:#fff;}.cls-2{fill:#e11d37;}.cls-3{fill:#066f9f;}</style></defs><path class="cls-1" d="M31.12,9.76,22.45,1.09a1.93,1.93,0,0,0-2.74,0L12.43,8.36.33,20.47a1.93,1.93,0,0,0,0,2.74L9,31.88a1.93,1.93,0,0,0,2.74,0L22.59,21l8.53-8.53a1.93,1.93,0,0,0,0-2.74" transform="translate(0.24 -0.52)"/><path class="cls-2" d="M30.51,10.38,21.84,1.7a1.07,1.07,0,0,0-1.52,0l-9.38,9.38L21.13,21.27l9.38-9.38a1.06,1.06,0,0,0,0-1.51m-7.63,2.5a2.5,2.5,0,1,1,.74-1.77,2.51,2.51,0,0,1-.74,1.77" transform="translate(0.24 -0.52)"/><path class="cls-3" d="M.94,21.08a1.07,1.07,0,0,0,0,1.52l8.67,8.67a1.09,1.09,0,0,0,1.52,0L20.5,21.9,10.31,11.71Zm7.51,2.5a2.54,2.54,0,0,1-3.56,0,2.54,2.54,0,0,1-.73-1.78A2.57,2.57,0,0,1,4.89,20a2.54,2.54,0,0,1,3.56,0,2.54,2.54,0,0,1,0,3.56m3.82-3.45a2.5,2.5,0,0,1,3.55,0,2.5,2.5,0,0,1,0,3.55,2.52,2.52,0,0,1-4.29-1.78,2.5,2.5,0,0,1,.74-1.77" transform="translate(0.24 -0.52)"/><path class="cls-1" d="M15.26,30h-.73a.07.07,0,0,0-.07.07v.13a.07.07,0,0,0,.07.06h.22v1.23a.07.07,0,0,0,.07.06H15a.07.07,0,0,0,.07-.06V30.29h.22a.07.07,0,0,0,.07-.06V30.1a.07.07,0,0,0-.07-.07" transform="translate(0.24 -0.52)"/><path class="cls-1" d="M16.61,30h-.25a.06.06,0,0,0-.06,0l-.18.8-.19-.8a.06.06,0,0,0-.06,0h-.25a.07.07,0,0,0-.06.07v1.42a.06.06,0,0,0,.06.06h.15a.06.06,0,0,0,.06-.06V30.8l.17.73a.06.06,0,0,0,.06,0h.11a.06.06,0,0,0,.06,0l.17-.73v.72a.07.07,0,0,0,.07.06h.14a.06.06,0,0,0,.06-.06V30.1a.07.07,0,0,0-.06-.07" transform="translate(0.24 -0.52)"/></svg>