<svg id="Layer_1" data-name="Layer 1" xmlns="http://www.w3.org/2000/svg" viewBox="0 0 34.45 34.47"><defs><style>.cls-1{fill:#177bae;}.cls-2{fill:#421413;}.cls-3{fill:#fff;}</style></defs><circle class="cls-1" cx="17.23" cy="17.23" r="16.32"/><path class="cls-2" d="M17.84,0A17.16,17.16,0,0,1,26.7,2.83,3.45,3.45,0,0,1,31.59,7.7a17.12,17.12,0,0,1,2.86,8.84H31.6a14.38,14.38,0,0,0-2.67-7.69A3.46,3.46,0,0,1,25.56,5.5a14.43,14.43,0,0,0-7.71-2.65Z"/><path class="cls-2" d="M0,16.61A17.19,17.19,0,0,1,2.83,7.75a3.42,3.42,0,0,1-.89-2.3A3.47,3.47,0,0,1,5.4,2a3.43,3.43,0,0,1,2.31.88A17.21,17.21,0,0,1,16.55,0V2.86A14.27,14.27,0,0,0,8.86,5.53,3.45,3.45,0,0,1,5.51,8.9a14.21,14.21,0,0,0-2.65,7.71Z"/><path class="cls-2" d="M16.61,34.47a17.19,17.19,0,0,1-8.86-2.83,3.44,3.44,0,0,1-2.3.89,3.46,3.46,0,0,1-2.59-5.77A17.09,17.09,0,0,1,0,17.93H2.85a14.36,14.36,0,0,0,2.68,7.69A3.46,3.46,0,0,1,8.9,29a14.28,14.28,0,0,0,7.71,2.64Z"/><path class="cls-2" d="M34.45,17.85a17.16,17.16,0,0,1-2.83,8.86,3.46,3.46,0,0,1-4.88,4.9,17.17,17.17,0,0,1-8.83,2.85V31.61a14.35,14.35,0,0,0,7.69-2.67A3.45,3.45,0,0,1,29,25.57a14.31,14.31,0,0,0,2.64-7.71Z"/><path class="cls-3" d="M9.32,18.84V15.48L16,22.17V7.71H18.5V22.17l6.63-6.69v3.36l-7.9,7.91Z"/></svg>