<svg id="Layer_1" data-name="Layer 1" xmlns="http://www.w3.org/2000/svg" viewBox="0 0 25.53 25.53"><defs><style>.cls-1{fill:#f5f6f7;}.cls-2{fill:#dcdbdb;}.cls-3{fill:#fff;}.cls-3,.cls-4{stroke:#254961;stroke-linecap:round;stroke-linejoin:round;stroke-width:0.51px;}.cls-4{fill:none;}.cls-5{fill:#e01e38;}</style></defs><circle id="label" class="cls-1" cx="14.64" cy="14.54" r="12.77" transform="matrix(0.17, -0.99, 0.99, 0.17, -4.04, 24.74)"/><path class="cls-2" d="M10.47,13.35V11.56a4.17,4.17,0,1,1,8.34,0v1.79H17.5l.12-.34V11.48a3,3,0,0,0-6,0V13l.12.34Z" transform="translate(-1.88 -1.77)"/><rect class="cls-3" x="6.72" y="11.57" width="12.08" height="8.34" rx="1.19"/><path class="cls-4" d="M10.47,13.35V11.56a4.17,4.17,0,0,1,4.17-4.17h0a4.17,4.17,0,0,1,4.17,4.17v1.79" transform="translate(-1.88 -1.77)"/><path class="cls-4" d="M11.66,13V11.48a3,3,0,0,1,3-3h0a3,3,0,0,1,3,3V13" transform="translate(-1.88 -1.77)"/><circle class="cls-5" cx="12.77" cy="15.87" r="3.19"/></svg>