<svg id="Layer_1" data-name="Layer 1" xmlns="http://www.w3.org/2000/svg" viewBox="0 0 19.3 19.32"><defs><style>.cls-1{fill:#fff;}</style></defs><g id="J9k4pl"><path class="cls-1" d="M7.51,17.38a1.85,1.85,0,0,0,.26.12c.2.06.25.18.24.38,0,.51,0,1,0,1.53,0,.13,0,.2.17.23s.39.09.58.15a.21.21,0,0,0,.3-.12c.25-.48.51-.94.78-1.41a.28.28,0,0,1,.2-.12c.62,0,1.23,0,1.85,0a.2.2,0,0,1,.22.13c.26.48.53,1,.8,1.44a.17.17,0,0,0,.22.11,4.64,4.64,0,0,1,.64-.17c.13,0,.16-.1.16-.22,0-.54,0-1.09,0-1.63,0-.13,0-.18.16-.25.51-.28,1-.57,1.53-.88a.24.24,0,0,1,.29,0c.46.29.93.56,1.39.84.06,0,.18.06.22,0,.22-.19.42-.4.63-.6-.32-.54-.62-1.05-.93-1.55a.24.24,0,0,1,0-.29c.3-.51.6-1,.88-1.53a.24.24,0,0,1,.25-.16l1.61,0c.14,0,.22,0,.25-.17a4.44,4.44,0,0,1,.16-.6c0-.13,0-.19-.12-.26-.47-.25-.94-.53-1.42-.78a.23.23,0,0,1-.13-.24c0-.6,0-1.2,0-1.79a.25.25,0,0,1,.15-.26c.31-.16.62-.33.92-.51s.53-.21.6-.39-.1-.48-.15-.73-.12-.18-.26-.18l-1.54,0A.3.3,0,0,1,18,7.36c-.27-.51-.56-1-.86-1.5a.24.24,0,0,1,0-.3c.29-.46.56-.92.83-1.38A.27.27,0,0,0,18,4c-.18-.22-.39-.42-.58-.63l-1.58.94a.2.2,0,0,1-.27,0c-.51-.3-1-.6-1.53-.88a.25.25,0,0,1-.16-.27l0-1.61c0-.13,0-.2-.16-.23a4.34,4.34,0,0,1-.62-.16c-.13,0-.18,0-.24.11-.26.47-.53.94-.79,1.42a.25.25,0,0,1-.26.14q-.88,0-1.77,0a.25.25,0,0,1-.26-.14C9.56,2.15,9.29,1.68,9,1.2a.18.18,0,0,0-.25-.11l-.61.16c-.13,0-.17.1-.17.23,0,.53,0,1.06,0,1.59a.28.28,0,0,1-.19.29c-.5.27-1,.56-1.49.86a.26.26,0,0,1-.31,0C5.6,4,5.13,3.67,4.66,3.4a.22.22,0,0,0-.22,0c-.22.18-.42.37-.59.54V4c.3.51.6,1,.91,1.52a.24.24,0,0,1,0,.29c-.31.5-.6,1-.88,1.51a.26.26,0,0,1-.28.17L2,7.48c-.09,0-.17,0-.2.11-.07.27-.15.54-.22.8l.05,0,1.53.85a.23.23,0,0,1,.13.24c0,.6,0,1.2,0,1.79a.24.24,0,0,1-.14.26c-.31.16-.62.33-.92.51s-.53.22-.6.41.1.48.15.72.1.17.23.17l1.63,0a.19.19,0,0,1,.23.14c.06.15.13.28.2.44.56-.55,1.08-1.08,1.6-1.61a.29.29,0,0,0,0-.23,5.43,5.43,0,0,1-.18-2.53,5.52,5.52,0,1,1,3.9,6.19c-.08,0-.21,0-.26,0C8.59,16.3,8.07,16.83,7.51,17.38ZM12.6,7.23l-.18-.09a3.4,3.4,0,0,0-3.67.56,3.36,3.36,0,0,0-1.13,3.51.4.4,0,0,1-.11.4L1.27,17.84c-.34.34-.34.43,0,.76l1.57,1.57c.3.3.41.3.7,0l6.3-6.3a.28.28,0,0,1,.32-.1,3.52,3.52,0,0,0,4.4-3.65,3.27,3.27,0,0,0-.39-1.36c-.07.09-.1.16-.15.22l-1.85,1.85a.63.63,0,0,1-.94,0,9.25,9.25,0,0,1-.7-.7.62.62,0,0,1,0-.89l.55-.56Z" transform="translate(-1.01 -1.07)"/><path class="cls-1" d="M7.51,17.38c.56-.55,1.08-1.08,1.62-1.6,0,0,.18,0,.26,0A5.53,5.53,0,1,0,5.67,12.1a.29.29,0,0,1,0,.23c-.52.53-1,1.06-1.6,1.61-.07-.16-.14-.29-.2-.44a.19.19,0,0,0-.23-.14L2,13.39c-.13,0-.2,0-.23-.17s-.22-.53-.15-.72.39-.29.6-.41.61-.35.92-.51a.24.24,0,0,0,.14-.26c0-.59,0-1.19,0-1.79a.23.23,0,0,0-.13-.24L1.61,8.44l-.05,0c.07-.26.15-.53.22-.8,0-.12.11-.12.2-.11l1.61,0a.26.26,0,0,0,.28-.17c.28-.51.57-1,.88-1.51a.24.24,0,0,0,0-.29c-.31-.5-.61-1-.91-1.52V3.94c.17-.17.37-.36.59-.54a.22.22,0,0,1,.22,0c.47.27.94.55,1.4.84a.26.26,0,0,0,.31,0c.49-.3,1-.59,1.49-.86a.28.28,0,0,0,.19-.29C8,2.54,8,2,8,1.48c0-.13,0-.2.17-.23l.61-.16A.18.18,0,0,1,9,1.2c.25.48.52,1,.78,1.43a.25.25,0,0,0,.26.14q.88,0,1.77,0a.25.25,0,0,0,.26-.14c.26-.48.53-.95.79-1.42.06-.11.11-.15.24-.11a4.34,4.34,0,0,0,.62.16c.13,0,.17.1.16.23l0,1.61a.25.25,0,0,0,.16.27c.52.28,1,.58,1.53.88a.2.2,0,0,0,.27,0l1.58-.94c.19.21.4.41.58.63a.27.27,0,0,1,0,.23c-.27.46-.54.92-.83,1.38a.24.24,0,0,0,0,.3c.3.49.59,1,.86,1.5a.3.3,0,0,0,.32.19l1.54,0c.14,0,.23,0,.26.18s.22.53.15.73-.39.27-.6.39-.61.35-.92.51a.25.25,0,0,0-.15.26c0,.59,0,1.19,0,1.79a.23.23,0,0,0,.13.24c.48.25.95.53,1.42.78.12.07.16.13.12.26a4.44,4.44,0,0,0-.16.6c0,.14-.11.17-.25.17l-1.61,0a.24.24,0,0,0-.25.16c-.28.51-.58,1-.88,1.53a.24.24,0,0,0,0,.29c.31.5.61,1,.93,1.55-.21.2-.41.41-.63.6,0,0-.16,0-.22,0-.46-.28-.93-.55-1.39-.84a.24.24,0,0,0-.29,0c-.5.31-1,.6-1.53.88-.12.07-.16.12-.16.25,0,.54,0,1.09,0,1.63,0,.12,0,.19-.16.22a4.64,4.64,0,0,0-.64.17.17.17,0,0,1-.22-.11c-.27-.48-.54-1-.8-1.44a.2.2,0,0,0-.22-.13c-.62,0-1.23,0-1.85,0a.28.28,0,0,0-.2.12c-.27.47-.53.93-.78,1.41a.21.21,0,0,1-.3.12c-.19-.06-.39-.11-.58-.15S8,19.54,8,19.41c0-.51,0-1,0-1.53,0-.2,0-.32-.24-.38A1.85,1.85,0,0,1,7.51,17.38Z" transform="translate(-1.01 -1.07)"/><path class="cls-1" d="M12.6,7.23l-1.52,1.5-.55.56a.62.62,0,0,0,0,.89,9.25,9.25,0,0,0,.7.7.63.63,0,0,0,.94,0L14,9c.05-.06.08-.13.15-.22a3.27,3.27,0,0,1,.39,1.36,3.52,3.52,0,0,1-4.4,3.65.28.28,0,0,0-.32.1l-6.3,6.3c-.29.29-.4.29-.7,0L1.26,18.6c-.33-.33-.33-.42,0-.76l6.24-6.23a.4.4,0,0,0,.11-.4A3.36,3.36,0,0,1,8.75,7.7a3.4,3.4,0,0,1,3.67-.56ZM3.33,18.54a.45.45,0,1,0-.47.44A.45.45,0,0,0,3.33,18.54Z" transform="translate(-1.01 -1.07)"/><path class="cls-1" d="M3.33,18.54a.45.45,0,1,1-.9,0,.45.45,0,1,1,.9,0Z" transform="translate(-1.01 -1.07)"/></g></svg>