<svg id="Layer_1" data-name="Layer 1" xmlns="http://www.w3.org/2000/svg" viewBox="0 0 167.62 29.89"><defs><style>.cls-1{fill:#fff;}</style></defs><path class="cls-1" d="M16.74,1.71A14.77,14.77,0,0,0,9.06,4.18a3,3,0,0,0-2-.77,3,3,0,0,0-2.24,5,14.94,14.94,0,0,0-2.46,7.67H4.83A12.46,12.46,0,0,1,7.14,9.41a3,3,0,0,0,2.92-2.92,12.46,12.46,0,0,1,6.68-2.31Z" transform="translate(-2.36 -1.71)"/><path class="cls-1" d="M32.24,16.09a14.86,14.86,0,0,0-2.47-7.68,3.06,3.06,0,0,0,.77-2,3,3,0,0,0-3-3,3,3,0,0,0-2,.77,14.87,14.87,0,0,0-7.67-2.46V4.18a12.37,12.37,0,0,1,6.67,2.31A3,3,0,0,0,27.45,9.4a12.41,12.41,0,0,1,2.31,6.69Z" transform="translate(-2.36 -1.71)"/><path class="cls-1" d="M17.87,31.6a14.92,14.92,0,0,0,7.68-2.47,3,3,0,0,0,2,.77,3,3,0,0,0,3-3,3,3,0,0,0-.77-2,14.75,14.75,0,0,0,2.46-7.67H29.77a12.37,12.37,0,0,1-2.31,6.68,3,3,0,0,0-2.91,2.91,12.49,12.49,0,0,1-6.68,2.32Z" transform="translate(-2.36 -1.71)"/><path class="cls-1" d="M2.37,17.22A14.77,14.77,0,0,0,4.84,24.9a3,3,0,0,0-.77,2,3,3,0,0,0,3,3,3,3,0,0,0,2-.77,15,15,0,0,0,7.67,2.46V29.13a12.45,12.45,0,0,1-6.67-2.31A3,3,0,0,0,7.15,23.9a12.37,12.37,0,0,1-2.31-6.68Z" transform="translate(-2.36 -1.71)"/><path class="cls-1" d="M23.76,9.69A9.34,9.34,0,0,0,19.2,7.35,1.9,1.9,0,0,0,16,6.1a1.86,1.86,0,0,0-.55,1.25,9.26,9.26,0,0,0-4.55,2.34L12,10.8a7.79,7.79,0,0,1,4-2,1.92,1.92,0,0,0,2.62,0,7.86,7.86,0,0,1,4,2Z" transform="translate(-2.36 -1.71)"/><path class="cls-1" d="M24.27,23.11a9.55,9.55,0,0,0,2.34-4.56A1.92,1.92,0,0,0,27.85,18a1.89,1.89,0,0,0,0-2.69,1.92,1.92,0,0,0-1.24-.56,9.52,9.52,0,0,0-2.34-4.55L23.15,11.3a7.91,7.91,0,0,1,2,4,1.9,1.9,0,0,0,0,2.62,8,8,0,0,1-2,4Z" transform="translate(-2.36 -1.71)"/><path class="cls-1" d="M10.84,23.62A9.38,9.38,0,0,0,15.4,26,2,2,0,0,0,16,27.21a1.92,1.92,0,0,0,2.7,0A1.94,1.94,0,0,0,19.21,26a9.52,9.52,0,0,0,4.55-2.34l-1.11-1.11a7.82,7.82,0,0,1-4,2,1.92,1.92,0,0,0-2.62,0,7.86,7.86,0,0,1-4-2Z" transform="translate(-2.36 -1.71)"/><path class="cls-1" d="M10.34,10.2A9.34,9.34,0,0,0,8,14.76a1.91,1.91,0,0,0,0,3.81,9.43,9.43,0,0,0,2.34,4.55L11.45,22a7.86,7.86,0,0,1-2-4,1.92,1.92,0,0,0,0-2.62,7.86,7.86,0,0,1,2-4Z" transform="translate(-2.36 -1.71)"/><path class="cls-1" d="M17.5,21.91A5.12,5.12,0,0,0,20.2,21a1.06,1.06,0,0,0,.71.27,1,1,0,0,0,1.05-1,1.06,1.06,0,0,0-.27-.71,5.21,5.21,0,0,0,.87-2.7h-.87a4.42,4.42,0,0,1-.81,2.35,1.07,1.07,0,0,0-1,1A4.34,4.34,0,0,1,17.5,21Z" transform="translate(-2.36 -1.71)"/><path class="cls-1" d="M12.05,16.85a5.24,5.24,0,0,0,.86,2.71,1.06,1.06,0,0,0,1.5,1.49,5.2,5.2,0,0,0,2.7.86V21a4.34,4.34,0,0,1-2.35-.81,1.05,1.05,0,0,0-1-1,4.37,4.37,0,0,1-.81-2.36Z" transform="translate(-2.36 -1.71)"/><path class="cls-1" d="M17.1,11.4a5.23,5.23,0,0,0-2.7.86,1.09,1.09,0,0,0-.7-.27,1.06,1.06,0,0,0-.79,1.77A5.18,5.18,0,0,0,12,16.45h.87a4.32,4.32,0,0,1,.82-2.34,1.05,1.05,0,0,0,1-1,4.37,4.37,0,0,1,2.35-.81Z" transform="translate(-2.36 -1.71)"/><path class="cls-1" d="M22.56,16.45a5.24,5.24,0,0,0-.87-2.7,1,1,0,0,0,.27-.7A1.05,1.05,0,0,0,20.9,12a1,1,0,0,0-.7.27,5.23,5.23,0,0,0-2.7-.86v.87a4.37,4.37,0,0,1,2.35.81,1,1,0,0,0,1,1,4.38,4.38,0,0,1,.82,2.35Z" transform="translate(-2.36 -1.71)"/><path class="cls-1" d="M60.11,22.63H58.77V12.79h1.3l.07.72c2.29-1.5,4.32-1.23,6.08.77a11.43,11.43,0,0,1,1.27-1.07,3.84,3.84,0,0,1,4.11-.15,3.89,3.89,0,0,1,2.15,3.53c0,1.87,0,3.74,0,5.61,0,.35-.09.48-.44.45s-.58,0-.91,0c0-.21,0-.38,0-.55,0-1.8,0-3.6,0-5.39a2.72,2.72,0,0,0-4.92-1.64,2.58,2.58,0,0,0-.52,1.63v5.92H65.58c0-.15,0-.31,0-.46v-5.4a2.73,2.73,0,1,0-5.45,0c0,1.78,0,3.57,0,5.35Z" transform="translate(-2.36 -1.71)"/><path class="cls-1" d="M57.27,22.62H55.94V21.31a5.12,5.12,0,0,1-5.47,1.19,4.88,4.88,0,0,1-2.59-2.25,5,5,0,0,1,8-6V12.77h1.37ZM55.92,17.8a3.64,3.64,0,0,0-3.69-3.69,3.69,3.69,0,0,0-3.62,3.69,3.65,3.65,0,0,0,3.6,3.65A3.61,3.61,0,0,0,55.92,17.8Z" transform="translate(-2.36 -1.71)"/><path class="cls-1" d="M125.77,22.36a5.59,5.59,0,0,1-.59.08c-1.09,0-2.19,0-3.28,0a1.3,1.3,0,0,1-.36-.13c.09-.09.17-.22.29-.26.57-.22.66-.32.67-.92,0-1.55,0-3.1,0-4.65a3.47,3.47,0,0,0-.64-2,2.74,2.74,0,0,0-4.41.23,2.21,2.21,0,0,0-.23,1c0,1.71,0,3.41.05,5.12a.93.93,0,0,0,.66.94c.3.1.62.14.92.23a1.48,1.48,0,0,1,.34.21c-.13.06-.25.17-.38.17-1.07,0-2.13-.05-3.19-.06a9.28,9.28,0,0,0-1.06.07l0-.14c.1-.09.18-.21.3-.25a1.33,1.33,0,0,0,.93-1.46c0-1.86,0-3.71,0-5.57a3.66,3.66,0,0,0-.1-.73c-.09-.45-.44-.54-.83-.58l-.74-.06,0-.15a3.79,3.79,0,0,1,.34-.2c.79-.32,1.59-.63,2.38-1,.37-.16.42-.14.43.27v1.6l.14.1a9.29,9.29,0,0,1,.65-.74,3.44,3.44,0,0,1,2.58-1.1,3.34,3.34,0,0,1,3.12,2.45,9,9,0,0,1,.27,1.94c0,1.35,0,2.71.07,4.07a1,1,0,0,0,.93,1c.28,0,.55.11.82.17Z" transform="translate(-2.36 -1.71)"/><path class="cls-1" d="M144.8,22.1c-.33.06-.67.13-1,.17s-.91.07-1.35.13-.6,0-.64-.47a4.5,4.5,0,0,0-.11-.92c-.13.14-.27.26-.4.4a3.69,3.69,0,0,1-4.63.76,3.17,3.17,0,0,1-1.44-2.75c-.05-1.68,0-3.36,0-5,0-1.13-.08-1.24-1.19-1.49-.07,0-.13-.07-.21-.24.21,0,.41-.11.62-.14l1.86-.24c.44-.07.44.26.44.52,0,.7,0,1.4-.05,2.1,0,1.3,0,2.6,0,3.9a2.9,2.9,0,0,0,1.3,2.79,2.59,2.59,0,0,0,2.67-.06,2.1,2.1,0,0,0,1.14-2c0-1.74,0-3.48,0-5.21a4.06,4.06,0,0,0-.09-.7c-.1-.46-.44-.6-.88-.63-.14,0-.27-.13-.4-.2a1.62,1.62,0,0,1,.42-.24c.3,0,.61,0,.91,0a9.92,9.92,0,0,0,1.11-.23c.27-.07.4,0,.4.28s0,.52,0,.79c0,2.17,0,4.35,0,6.53,0,.33,0,.67.05,1,.07.85.3,1,1.17,1a.89.89,0,0,1,.32.08Z" transform="translate(-2.36 -1.71)"/><path class="cls-1" d="M48.34,7.68l-.1.13a1.19,1.19,0,0,1-1.66.48,2.4,2.4,0,0,0-3.23,2.32c0,.59,0,1.17,0,1.75,0,.3.11.38.39.38h2l.52,0a7.53,7.53,0,0,1,0,1.07c0,.1-.22.25-.34.26-.65,0-1.31,0-2,0h-.53v9.67a11.9,11.9,0,0,1-1.21,0c-.07,0-.17-.26-.17-.41,0-1.49,0-3,0-4.47V14.11H40.83c-.3,0-.42-.11-.41-.41s0-.61,0-1c.4,0,.72,0,1,0s.54-.08.53-.5a12.5,12.5,0,0,1,.1-2.45,3.57,3.57,0,0,1,2.61-2.85A3.72,3.72,0,0,1,48.34,7.68Z" transform="translate(-2.36 -1.71)"/><path class="cls-1" d="M85.76,26.56a22,22,0,0,1,.9-2.32,3.33,3.33,0,0,0,0-3.17c-1.12-2.59-2.11-5.25-3.15-7.88,0-.12-.08-.25-.14-.43.46,0,.88,0,1.3,0,.11,0,.25.22.31.36l2.73,6.92c.07.18.15.36.28.67.22-.54.39-1,.55-1.39.79-2,1.59-4.08,2.36-6.13.13-.34.3-.49.67-.45s.6,0,1,0c-.27.71-.51,1.36-.76,2q-2.16,5.55-4.3,11.1c-.29.72-.09.7-1,.7Z" transform="translate(-2.36 -1.71)"/><path class="cls-1" d="M162.38,20.45a1.68,1.68,0,0,1-.21.47,4.4,4.4,0,0,1-7.9-2.06,5.62,5.62,0,0,1,1.38-5.11,3.62,3.62,0,0,1,6.06.82,8.54,8.54,0,0,1,.46,1.08c.23.64.09.84-.58.84-1.83,0-3.65,0-5.48,0-.43,0-.55.14-.52.55a5.14,5.14,0,0,0,1.8,3.89,3.05,3.05,0,0,0,3.48.31c.49-.24.94-.56,1.41-.84Zm-6.74-4.61c.2,0,.28.06.36.06h3.68a2,2,0,0,0,.47-.07.46.46,0,0,0,.38-.58,3,3,0,0,0-.76-1.54,2.11,2.11,0,0,0-3.66.59A12.14,12.14,0,0,0,155.64,15.84Z" transform="translate(-2.36 -1.71)"/><path class="cls-1" d="M112.64,20.45a1.68,1.68,0,0,1-.17.41,4.51,4.51,0,0,1-6.14,1,4.84,4.84,0,0,1-1.88-3.43,5.62,5.62,0,0,1,1.65-4.87,3.6,3.6,0,0,1,5.86,1,9.83,9.83,0,0,1,.49,1.16c.2.58.07.76-.54.76-1.84,0-3.69,0-5.52,0-.44,0-.56.12-.54.54a5.23,5.23,0,0,0,1.55,3.7,3.27,3.27,0,0,0,4.33.18l.79-.52Zm-6.7-4.58c.23,0,.39,0,.55,0h3.1c.24,0,.49,0,.73-.07s.47-.21.44-.57A2.85,2.85,0,0,0,109,13a1.88,1.88,0,0,0-1.89.34A3.68,3.68,0,0,0,105.94,15.87Z" transform="translate(-2.36 -1.71)"/><path class="cls-1" d="M93.66,12.87a3.61,3.61,0,0,1,.57-.1c1.15,0,2.3,0,3.46,0a1.2,1.2,0,0,1,.4.16,3.61,3.61,0,0,1-.36.23,2.62,2.62,0,0,1-.38.09c-.49.15-.7.46-.52.93.38,1.05.81,2.09,1.23,3.13s.9,2.18,1.37,3.3c.08-.06.14-.08.16-.12.72-1.65,1.45-3.28,2.14-4.93a3.68,3.68,0,0,0,.23-1.24c0-.63-.18-.88-.78-1.09a3.5,3.5,0,0,1-.56-.32,4,4,0,0,1,.67-.14c.85,0,1.69,0,2.54,0,.15,0,.29,0,.57.05a2.18,2.18,0,0,1-.36.29,1.84,1.84,0,0,0-1,1c-.9,2-1.79,3.92-2.69,5.89-.35.75-.69,1.51-1,2.26-.08.16-.27.27-.41.4a1.57,1.57,0,0,1-.39-.43q-1.59-3.72-3.14-7.46a2.89,2.89,0,0,0-1.47-1.71S93.8,13,93.66,12.87Z" transform="translate(-2.36 -1.71)"/><path class="cls-1" d="M83.08,22.61a4.33,4.33,0,0,1-4.53-3.52,7.81,7.81,0,0,1-.09-1.18V6.76h1.38V18.14a3,3,0,0,0,2.84,3.12c.29,0,.43.11.41.42S83.08,22.29,83.08,22.61Z" transform="translate(-2.36 -1.71)"/><path class="cls-1" d="M128.11,13.85c-.32,0-.58,0-.84,0a3.06,3.06,0,0,1-.43-.13,2.42,2.42,0,0,1,.21-.39c.53-.58,1.09-1.14,1.61-1.73a7.77,7.77,0,0,0,.64-.94,2.85,2.85,0,0,0,.16-.3l.17.1c0,.62,0,1.24,0,1.85,0,.38.12.48.48.47.67,0,1.34,0,2,0a5.78,5.78,0,0,0,1.07-.27,9.27,9.27,0,0,1-.5,1.15c-.07.13-.34.2-.52.2-.82,0-1.64,0-2.5,0,0,.18,0,.33,0,.48,0,1.9.05,3.8,0,5.7s1.28,2.1,2.59,1.73a7,7,0,0,0,.93-.42l.1.11a3.16,3.16,0,0,1-.45.51,3.79,3.79,0,0,1-2.83.65,2.3,2.3,0,0,1-1.86-2.46c0-1.9,0-3.79,0-5.69Z" transform="translate(-2.36 -1.71)"/><path class="cls-1" d="M169.18,15.08c-.15-.31-.28-.63-.45-.94a2.3,2.3,0,0,0-2.7-1.07,1.3,1.3,0,0,0-.95,1,1.31,1.31,0,0,0,.57,1.5c.71.39,1.46.73,2.19,1.09l.66.34a2.86,2.86,0,0,1,.71,4.48,3.33,3.33,0,0,1-4.07.79c-.33-.14-.69-.23-1-.38a.51.51,0,0,1-.27-.33c0-.73-.05-1.46,0-2.19A1,1,0,0,1,164,19h.13c.08.22.17.43.23.66a3.78,3.78,0,0,0,1,1.87,2.31,2.31,0,0,0,2.52.41,1.79,1.79,0,0,0,1-1.67,2,2,0,0,0-1.29-1.83c-.85-.43-1.73-.85-2.53-1.36a2.47,2.47,0,0,1,.33-4.19,4.13,4.13,0,0,1,3.75,0,.4.4,0,0,1,.21.25c.06.54.09,1.08.11,1.61,0,.11-.09.21-.14.32Z" transform="translate(-2.36 -1.71)"/><path class="cls-1" d="M146,13.6c.11-.07.21-.19.32-.21a6.44,6.44,0,0,0,2.54-1c.43-.26.53-.2.53.3s0,1.14,0,1.71c0,0,0,0,.07.15.11-.14.19-.26.29-.37a12.55,12.55,0,0,1,1.37-1.45,1.57,1.57,0,0,1,2.17.72.79.79,0,0,1-.08.49,1.67,1.67,0,0,1-.26.35c-.36.46-.39.47-.87.14a1.56,1.56,0,0,0-2.61,1.27c-.08,1.73,0,3.47,0,5.2a1.12,1.12,0,0,0,1.26,1.17,1.54,1.54,0,0,1,.43.05,1.6,1.6,0,0,1,.3.23,1.08,1.08,0,0,1-.4.17c-.69,0-1.39-.07-2.09-.07s-1.16.07-1.74.08a1.51,1.51,0,0,1-.41-.13c.1-.1.19-.26.31-.29a.84.84,0,0,0,.72-.86c0-.57.06-1.14.06-1.71,0-1.43,0-2.86,0-4.29,0-1-.43-1.45-1.46-1.48a3.47,3.47,0,0,1-.45-.06Z" transform="translate(-2.36 -1.71)"/><path class="cls-1" d="M76.78,12.73c0,.23,0,.4,0,.57q0,4.41,0,8.81c0,.42-.1.59-.54.54a6.89,6.89,0,0,0-.8,0c0-.19,0-.38,0-.56,0-3,0-5.93,0-8.9,0-.37.13-.48.48-.45S76.47,12.73,76.78,12.73Z" transform="translate(-2.36 -1.71)"/><path class="cls-1" d="M76.11,11.18a.92.92,0,0,1,0-1.84.92.92,0,1,1,0,1.84Z" transform="translate(-2.36 -1.71)"/></svg>