<svg id="Layer_1" data-name="Layer 1" xmlns="http://www.w3.org/2000/svg" viewBox="0 0 24.57 24.48"><defs><style>.cls-1{fill:#fff;}</style></defs><path class="cls-1" d="M12.29.09A12.24,12.24,0,1,0,24.57,12.33,12.26,12.26,0,0,0,12.29.09Zm6.16,18.38a3.39,3.39,0,0,1-2.78,2.26,5.93,5.93,0,0,1-3.06-.42,15.71,15.71,0,0,1-4-2.32,14,14,0,0,1-3.33-3.45,8.46,8.46,0,0,1-1.39-3.3A4.57,4.57,0,0,1,4.38,8,3.27,3.27,0,0,1,6,6.66a1.39,1.39,0,0,1,1.84.86c.29,1.05.53,2.11.78,3.17a4.28,4.28,0,0,1,.05.72.59.59,0,0,1-.29.56l-.91.58-.13.08a11.27,11.27,0,0,0,5.18,4.85c.12-.22.22-.44.34-.65l.28-.48a.61.61,0,0,1,.6-.31,13.21,13.21,0,0,1,1.41.15c.81.15,1.61.34,2.41.53A1.34,1.34,0,0,1,18.45,18.47ZM12.59,7.23l-.48-.07a.47.47,0,1,1,.12-.94,7,7,0,0,1,4.35,2.14A6.93,6.93,0,0,1,18.41,12s0,.11,0,.15a.49.49,0,0,1-.41.48.47.47,0,0,1-.52-.38,5.89,5.89,0,0,0-.61-1.83A6,6,0,0,0,12.59,7.23Zm3.32,4.9a.48.48,0,0,1-.39.5.46.46,0,0,1-.53-.35,3.41,3.41,0,0,0-2.83-2.66.48.48,0,0,1-.46-.45.46.46,0,0,1,.38-.48,1.22,1.22,0,0,1,.38,0A4.34,4.34,0,0,1,15.9,12,.41.41,0,0,1,15.91,12.13Zm4.66.66a.48.48,0,0,1-.53-.41A8.64,8.64,0,0,0,13.16,5c-.37-.08-.75-.11-1.12-.16s-.53-.22-.51-.52.24-.42.7-.4a9.56,9.56,0,0,1,8.66,7.82c0,.16.06.32.08.48A.47.47,0,0,1,20.57,12.79Z" transform="translate(0 -0.09)"/></svg>